# xmcd
#
# Track frame offsets: 
#        150
#        18866
#        33851
#        49733
#        67582
#        83859
#        99154
#        114722
#        130894
#        145472
#
# Disc length: 2155 seconds
#
# Revision: 0
# Processed by: cddbd v1.5.2PL0 Copyright (c) Steve Scherf et al.
# Submitted via: ExactAudioCopy v0.90b4
#
DISCID=7808690a
DTITLE=Keshia Chante - Unbound 02
DYEAR=2018
DGENRE=Blues
TTITLE0=Redlight
TTITLE1=Bryson Tiller
TTITLE2=Harmless
TTITLE3=Nothing New
TTITLE4=Bittersweet
TTITLE5=Rotation
TTITLE6=Lights Out
TTITLE7=The Valley
TTITLE8=F**k It Tho
TTITLE9=Freedom
EXTD=
EXTT0=
EXTT1=
EXTT2=
EXTT3=
EXTT4=
EXTT5=
EXTT6=
EXTT7=
EXTT8=
EXTT9=
PLAYORDER=
